solid fiskars_scissors_red_collision
   facet normal 1.000000e+000 0.000000e+000 0.000000e+000
      outer loop
         vertex 1.730000e-001 8.100000e-002 1.200000e-002
         vertex 1.730000e-001 2.775558e-017 1.200000e-002
         vertex 1.730000e-001 8.100000e-002 0.000000e+000
      endloop
   endfacet
   facet normal 1.000000e+000 0.000000e+000 0.000000e+000
      outer loop
         vertex 1.730000e-001 8.100000e-002 0.000000e+000
         vertex 1.730000e-001 2.775558e-017 1.200000e-002
         vertex 1.730000e-001 2.775558e-017 0.000000e+000
      endloop
   endfacet
   facet normal -8.021843e-017 1.000000e+000 0.000000e+000
      outer loop
         vertex 0.000000e+000 8.100000e-002 1.200000e-002
         vertex 1.730000e-001 8.100000e-002 1.200000e-002
         vertex 0.000000e+000 8.100000e-002 0.000000e+000
      endloop
   endfacet
   facet normal -8.021843e-017 1.000000e+000 0.000000e+000
      outer loop
         vertex 0.000000e+000 8.100000e-002 0.000000e+000
         vertex 1.730000e-001 8.100000e-002 1.200000e-002
         vertex 1.730000e-001 8.100000e-002 0.000000e+000
      endloop
   endfacet
   facet normal -1.000000e+000 0.000000e+000 0.000000e+000
      outer loop
         vertex 0.000000e+000 6.569186e-018 1.200000e-002
         vertex 0.000000e+000 8.100000e-002 1.200000e-002
         vertex 0.000000e+000 6.569186e-018 0.000000e+000
      endloop
   endfacet
   facet normal -1.000000e+000 0.000000e+000 0.000000e+000
      outer loop
         vertex 0.000000e+000 6.569186e-018 0.000000e+000
         vertex 0.000000e+000 8.100000e-002 1.200000e-002
         vertex 0.000000e+000 8.100000e-002 0.000000e+000
      endloop
   endfacet
   facet normal 1.224647e-016 -1.000000e+000 0.000000e+000
      outer loop
         vertex 1.730000e-001 2.775558e-017 1.200000e-002
         vertex 0.000000e+000 6.569186e-018 1.200000e-002
         vertex 1.730000e-001 2.775558e-017 0.000000e+000
      endloop
   endfacet
   facet normal 1.224647e-016 -1.000000e+000 0.000000e+000
      outer loop
         vertex 1.730000e-001 2.775558e-017 0.000000e+000
         vertex 0.000000e+000 6.569186e-018 1.200000e-002
         vertex 0.000000e+000 6.569186e-018 0.000000e+000
      endloop
   endfacet
   facet normal 0.000000e+000 0.000000e+000 1.000000e+000
      outer loop
         vertex 0.000000e+000 8.100000e-002 1.200000e-002
         vertex 0.000000e+000 6.569186e-018 1.200000e-002
         vertex 1.730000e-001 8.100000e-002 1.200000e-002
      endloop
   endfacet
   facet normal 0.000000e+000 0.000000e+000 1.000000e+000
      outer loop
         vertex 1.730000e-001 8.100000e-002 1.200000e-002
         vertex 0.000000e+000 6.569186e-018 1.200000e-002
         vertex 1.730000e-001 2.775558e-017 1.200000e-002
      endloop
   endfacet
   facet normal 0.000000e+000 0.000000e+000 -1.000000e+000
      outer loop
         vertex 0.000000e+000 6.569186e-018 0.000000e+000
         vertex 0.000000e+000 8.100000e-002 0.000000e+000
         vertex 1.730000e-001 2.775558e-017 0.000000e+000
      endloop
   endfacet
   facet normal 0.000000e+000 0.000000e+000 -1.000000e+000
      outer loop
         vertex 1.730000e-001 2.775558e-017 0.000000e+000
         vertex 0.000000e+000 8.100000e-002 0.000000e+000
         vertex 1.730000e-001 8.100000e-002 0.000000e+000
      endloop
   endfacet
endsolid